<mxfile host="app.diagrams.net" modified="2024-05-17T17:57:19.874Z" agent="Mozilla/5.0 (Windows NT 10.0; Win64; x64) AppleWebKit/537.36 (KHTML, like Gecko) Chrome/123.0.0.0 Safari/537.36 OPR/109.0.0.0" etag="n88GCdx1Cm6_UnL-rezp" version="24.4.4" type="github">
  <diagram name="PÃ¡gina-1" id="_cBQGPSDmj4nhemE45X3">
    <mxGraphModel dx="1393" dy="766" grid="1" gridSize="10" guides="1" tooltips="1" connect="1" arrows="1" fold="1" page="1" pageScale="1" pageWidth="827" pageHeight="1169" math="0" shadow="0">
      <root>
        <mxCell id="0" />
        <mxCell id="1" parent="0" />
        <mxCell id="6DzgMqljPBY0_G3z6sP4-79" style="edgeStyle=orthogonalEdgeStyle;rounded=0;orthogonalLoop=1;jettySize=auto;html=1;exitX=0.5;exitY=1;exitDx=0;exitDy=0;entryX=0.5;entryY=0;entryDx=0;entryDy=0;" parent="1" source="6DzgMqljPBY0_G3z6sP4-1" target="6DzgMqljPBY0_G3z6sP4-78" edge="1">
          <mxGeometry relative="1" as="geometry" />
        </mxCell>
        <mxCell id="6DzgMqljPBY0_G3z6sP4-1" value="Aluno" style="whiteSpace=wrap;html=1;align=center;" parent="1" vertex="1">
          <mxGeometry x="70" y="440" width="100" height="40" as="geometry" />
        </mxCell>
        <mxCell id="6DzgMqljPBY0_G3z6sP4-77" style="edgeStyle=orthogonalEdgeStyle;rounded=0;orthogonalLoop=1;jettySize=auto;html=1;entryX=0.5;entryY=0;entryDx=0;entryDy=0;" parent="1" source="6DzgMqljPBY0_G3z6sP4-2" target="6DzgMqljPBY0_G3z6sP4-75" edge="1">
          <mxGeometry relative="1" as="geometry" />
        </mxCell>
        <mxCell id="6DzgMqljPBY0_G3z6sP4-2" value="Aluno_discipina" style="whiteSpace=wrap;html=1;align=center;" parent="1" vertex="1">
          <mxGeometry x="285" y="630" width="190" height="40" as="geometry" />
        </mxCell>
        <mxCell id="6DzgMqljPBY0_G3z6sP4-3" value="Disciplina" style="whiteSpace=wrap;html=1;align=center;" parent="1" vertex="1">
          <mxGeometry x="520" y="440" width="100" height="40" as="geometry" />
        </mxCell>
        <mxCell id="6DzgMqljPBY0_G3z6sP4-66" value="n1&lt;span style=&quot;color: rgba(0, 0, 0, 0); font-family: monospace; font-size: 0px; text-align: start; text-wrap: nowrap;&quot;&gt;%3CmxGraphModel%3E%3Croot%3E%3CmxCell%20id%3D%220%22%2F%3E%3CmxCell%20id%3D%221%22%20parent%3D%220%22%2F%3E%3CmxCell%20id%3D%222%22%20value%3D%22%22%20style%3D%22endArrow%3Dnone%3Bhtml%3D1%3Brounded%3D0%3BentryX%3D0%3BentryY%3D0.5%3BentryDx%3D0%3BentryDy%3D0%3BexitX%3D0.95%3BexitY%3D0.533%3BexitDx%3D0%3BexitDy%3D0%3BexitPerimeter%3D0%3B%22%20edge%3D%221%22%20parent%3D%221%22%3E%3CmxGeometry%20relative%3D%221%22%20as%3D%22geometry%22%3E%3CmxPoint%20x%3D%22464%22%20y%3D%22462%22%20as%3D%22sourcePoint%22%2F%3E%3CmxPoint%20x%3D%22520%22%20y%3D%22460%22%20as%3D%22targetPoint%22%2F%3E%3C%2FmxGeometry%3E%3C%2FmxCell%3E%3CmxCell%20id%3D%223%22%20value%3D%22N%22%20style%3D%22resizable%3D0%3Bhtml%3D1%3BwhiteSpace%3Dwrap%3Balign%3Dright%3BverticalAlign%3Dbottom%3B%22%20connectable%3D%220%22%20vertex%3D%221%22%20parent%3D%222%22%3E%3CmxGeometry%20x%3D%221%22%20relative%3D%221%22%20as%3D%22geometry%22%2F%3E%3C%2FmxCell%3E%3C%2Froot%3E%3C%2FmxGraphModel%3E&lt;/span&gt;&lt;span style=&quot;color: rgba(0, 0, 0, 0); font-family: monospace; font-size: 0px; text-align: start; text-wrap: nowrap;&quot;&gt;%3CmxGraphModel%3E%3Croot%3E%3CmxCell%20id%3D%220%22%2F%3E%3CmxCell%20id%3D%221%22%20parent%3D%220%22%2F%3E%3CmxCell%20id%3D%222%22%20value%3D%22%22%20style%3D%22endArrow%3Dnone%3Bhtml%3D1%3Brounded%3D0%3BentryX%3D0%3BentryY%3D0.5%3BentryDx%3D0%3BentryDy%3D0%3BexitX%3D0.95%3BexitY%3D0.533%3BexitDx%3D0%3BexitDy%3D0%3BexitPerimeter%3D0%3B%22%20edge%3D%221%22%20parent%3D%221%22%3E%3CmxGeometry%20relative%3D%221%22%20as%3D%22geometry%22%3E%3CmxPoint%20x%3D%22464%22%20y%3D%22462%22%20as%3D%22sourcePoint%22%2F%3E%3CmxPoint%20x%3D%22520%22%20y%3D%22460%22%20as%3D%22targetPoint%22%2F%3E%3C%2FmxGeometry%3E%3C%2FmxCell%3E%3CmxCell%20id%3D%223%22%20value%3D%22N%22%20style%3D%22resizable%3D0%3Bhtml%3D1%3BwhiteSpace%3Dwrap%3Balign%3Dright%3BverticalAlign%3Dbottom%3B%22%20connectable%3D%220%22%20vertex%3D%221%22%20parent%3D%222%22%3E%3CmxGeometry%20x%3D%221%22%20relative%3D%221%22%20as%3D%22geometry%22%2F%3E%3C%2FmxCell%3E%3C%2Froot%3E%3C%2FmxGraphModel%3E&lt;/span&gt;" style="ellipse;whiteSpace=wrap;html=1;align=center;" parent="1" vertex="1">
          <mxGeometry x="330" y="740" width="100" height="40" as="geometry" />
        </mxCell>
        <mxCell id="6DzgMqljPBY0_G3z6sP4-67" value="n2" style="ellipse;whiteSpace=wrap;html=1;align=center;" parent="1" vertex="1">
          <mxGeometry x="330" y="780" width="100" height="40" as="geometry" />
        </mxCell>
        <mxCell id="6DzgMqljPBY0_G3z6sP4-68" value="sub" style="ellipse;whiteSpace=wrap;html=1;align=center;" parent="1" vertex="1">
          <mxGeometry x="330" y="820" width="100" height="40" as="geometry" />
        </mxCell>
        <mxCell id="6DzgMqljPBY0_G3z6sP4-75" value="RA" style="ellipse;whiteSpace=wrap;html=1;align=center;fontStyle=4;" parent="1" vertex="1">
          <mxGeometry x="330" y="680" width="95" height="30" as="geometry" />
        </mxCell>
        <mxCell id="6DzgMqljPBY0_G3z6sP4-76" value="CodDisp" style="ellipse;whiteSpace=wrap;html=1;align=center;fontStyle=4;" parent="1" vertex="1">
          <mxGeometry x="330" y="710" width="100" height="30" as="geometry" />
        </mxCell>
        <mxCell id="6DzgMqljPBY0_G3z6sP4-78" value="RA" style="ellipse;whiteSpace=wrap;html=1;align=center;fontStyle=4;" parent="1" vertex="1">
          <mxGeometry x="70" y="490" width="100" height="30" as="geometry" />
        </mxCell>
        <mxCell id="6DzgMqljPBY0_G3z6sP4-86" value="Media" style="ellipse;whiteSpace=wrap;html=1;align=center;dashed=1;" parent="1" vertex="1">
          <mxGeometry x="327.5" y="900" width="100" height="40" as="geometry" />
        </mxCell>
        <mxCell id="6DzgMqljPBY0_G3z6sP4-87" value="Frequencia" style="ellipse;whiteSpace=wrap;html=1;align=center;" parent="1" vertex="1">
          <mxGeometry x="330" y="860" width="100" height="40" as="geometry" />
        </mxCell>
        <mxCell id="6DzgMqljPBY0_G3z6sP4-91" value="Tem" style="shape=rhombus;perimeter=rhombusPerimeter;whiteSpace=wrap;html=1;align=center;" parent="1" vertex="1">
          <mxGeometry x="180" y="510" width="120" height="60" as="geometry" />
        </mxCell>
        <mxCell id="6DzgMqljPBY0_G3z6sP4-93" value="" style="endArrow=none;html=1;rounded=0;entryX=0;entryY=0.5;entryDx=0;entryDy=0;exitX=0.5;exitY=1;exitDx=0;exitDy=0;" parent="1" source="6DzgMqljPBY0_G3z6sP4-91" target="6DzgMqljPBY0_G3z6sP4-2" edge="1">
          <mxGeometry relative="1" as="geometry">
            <mxPoint x="430" y="570" as="sourcePoint" />
            <mxPoint x="590" y="570" as="targetPoint" />
            <Array as="points">
              <mxPoint x="240" y="650" />
            </Array>
          </mxGeometry>
        </mxCell>
        <mxCell id="6DzgMqljPBY0_G3z6sP4-94" value="N" style="resizable=0;html=1;whiteSpace=wrap;align=right;verticalAlign=bottom;" parent="6DzgMqljPBY0_G3z6sP4-93" connectable="0" vertex="1">
          <mxGeometry x="1" relative="1" as="geometry" />
        </mxCell>
        <mxCell id="6DzgMqljPBY0_G3z6sP4-95" value="" style="endArrow=none;html=1;rounded=0;exitX=0.5;exitY=0;exitDx=0;exitDy=0;entryX=1;entryY=0.5;entryDx=0;entryDy=0;" parent="1" source="6DzgMqljPBY0_G3z6sP4-91" target="6DzgMqljPBY0_G3z6sP4-1" edge="1">
          <mxGeometry relative="1" as="geometry">
            <mxPoint x="400" y="470" as="sourcePoint" />
            <mxPoint x="330" y="470" as="targetPoint" />
            <Array as="points">
              <mxPoint x="240" y="460" />
            </Array>
          </mxGeometry>
        </mxCell>
        <mxCell id="6DzgMqljPBY0_G3z6sP4-96" value="1" style="resizable=0;html=1;whiteSpace=wrap;align=right;verticalAlign=bottom;" parent="6DzgMqljPBY0_G3z6sP4-95" connectable="0" vertex="1">
          <mxGeometry x="1" relative="1" as="geometry" />
        </mxCell>
        <mxCell id="6DzgMqljPBY0_G3z6sP4-97" value="Tem" style="shape=rhombus;perimeter=rhombusPerimeter;whiteSpace=wrap;html=1;align=center;" parent="1" vertex="1">
          <mxGeometry x="510" y="555" width="120" height="60" as="geometry" />
        </mxCell>
        <mxCell id="6DzgMqljPBY0_G3z6sP4-98" value="" style="endArrow=none;html=1;rounded=0;entryX=1;entryY=0.5;entryDx=0;entryDy=0;exitX=0.5;exitY=1;exitDx=0;exitDy=0;" parent="1" source="6DzgMqljPBY0_G3z6sP4-97" target="6DzgMqljPBY0_G3z6sP4-2" edge="1">
          <mxGeometry relative="1" as="geometry">
            <mxPoint x="585" y="615" as="sourcePoint" />
            <mxPoint x="630" y="695" as="targetPoint" />
            <Array as="points">
              <mxPoint x="570" y="650" />
            </Array>
          </mxGeometry>
        </mxCell>
        <mxCell id="6DzgMqljPBY0_G3z6sP4-99" value="N" style="resizable=0;html=1;whiteSpace=wrap;align=right;verticalAlign=bottom;" parent="6DzgMqljPBY0_G3z6sP4-98" connectable="0" vertex="1">
          <mxGeometry x="1" relative="1" as="geometry" />
        </mxCell>
        <mxCell id="6DzgMqljPBY0_G3z6sP4-102" value="" style="endArrow=none;html=1;rounded=0;exitX=0.5;exitY=0;exitDx=0;exitDy=0;entryX=0.5;entryY=1;entryDx=0;entryDy=0;" parent="1" source="6DzgMqljPBY0_G3z6sP4-97" target="6DzgMqljPBY0_G3z6sP4-3" edge="1">
          <mxGeometry relative="1" as="geometry">
            <mxPoint x="700" y="510" as="sourcePoint" />
            <mxPoint x="630" y="510" as="targetPoint" />
          </mxGeometry>
        </mxCell>
        <mxCell id="6DzgMqljPBY0_G3z6sP4-103" value="1" style="resizable=0;html=1;whiteSpace=wrap;align=right;verticalAlign=bottom;" parent="6DzgMqljPBY0_G3z6sP4-102" connectable="0" vertex="1">
          <mxGeometry x="1" relative="1" as="geometry" />
        </mxCell>
        <mxCell id="6DzgMqljPBY0_G3z6sP4-104" value="CodDisp" style="ellipse;whiteSpace=wrap;html=1;align=center;fontStyle=4;" parent="1" vertex="1">
          <mxGeometry x="520" y="410" width="100" height="30" as="geometry" />
        </mxCell>
        <mxCell id="6DzgMqljPBY0_G3z6sP4-105" value="Situacao" style="ellipse;whiteSpace=wrap;html=1;align=center;dashed=1;" parent="1" vertex="1">
          <mxGeometry x="327.5" y="940" width="100" height="40" as="geometry" />
        </mxCell>
        <mxCell id="6DzgMqljPBY0_G3z6sP4-106" value="carga horaria" style="ellipse;whiteSpace=wrap;html=1;align=center;" parent="1" vertex="1">
          <mxGeometry x="520" y="370" width="100" height="40" as="geometry" />
        </mxCell>
        <mxCell id="6DzgMqljPBY0_G3z6sP4-109" value="Nome" style="ellipse;whiteSpace=wrap;html=1;align=center;" parent="1" vertex="1">
          <mxGeometry x="520" y="330" width="100" height="40" as="geometry" />
        </mxCell>
        <mxCell id="6DzgMqljPBY0_G3z6sP4-110" value="Nome" style="ellipse;whiteSpace=wrap;html=1;align=center;" parent="1" vertex="1">
          <mxGeometry x="70" y="520" width="100" height="40" as="geometry" />
        </mxCell>
        <mxCell id="OakHQ82f-dWZ7RWoMNHG-1" value="Modelo Entidade Relacionamento" style="text;html=1;align=center;verticalAlign=middle;resizable=0;points=[];autosize=5;strokeColor=none;fillColor=none;" vertex="1" parent="1">
          <mxGeometry x="285" y="300" width="200" height="30" as="geometry" />
        </mxCell>
        <mxCell id="OakHQ82f-dWZ7RWoMNHG-5" value="" style="swimlane;startSize=0;" vertex="1" parent="1">
          <mxGeometry x="20" y="330" width="750" height="660" as="geometry" />
        </mxCell>
        <mxCell id="OakHQ82f-dWZ7RWoMNHG-6" value="Aluno" style="shape=table;startSize=30;container=1;collapsible=1;childLayout=tableLayout;fixedRows=1;rowLines=0;fontStyle=1;align=center;resizeLast=1;html=1;" vertex="1" parent="1">
          <mxGeometry x="47" y="1130" width="180" height="140" as="geometry" />
        </mxCell>
        <mxCell id="OakHQ82f-dWZ7RWoMNHG-7" value="" style="shape=tableRow;horizontal=0;startSize=0;swimlaneHead=0;swimlaneBody=0;fillColor=none;collapsible=0;dropTarget=0;points=[[0,0.5],[1,0.5]];portConstraint=eastwest;top=0;left=0;right=0;bottom=1;" vertex="1" parent="OakHQ82f-dWZ7RWoMNHG-6">
          <mxGeometry y="30" width="180" height="30" as="geometry" />
        </mxCell>
        <mxCell id="OakHQ82f-dWZ7RWoMNHG-8" value="PK" style="shape=partialRectangle;connectable=0;fillColor=none;top=0;left=0;bottom=0;right=0;fontStyle=1;overflow=hidden;whiteSpace=wrap;html=1;" vertex="1" parent="OakHQ82f-dWZ7RWoMNHG-7">
          <mxGeometry width="30" height="30" as="geometry">
            <mxRectangle width="30" height="30" as="alternateBounds" />
          </mxGeometry>
        </mxCell>
        <mxCell id="OakHQ82f-dWZ7RWoMNHG-9" value="Ra" style="shape=partialRectangle;connectable=0;fillColor=none;top=0;left=0;bottom=0;right=0;align=left;spacingLeft=6;fontStyle=5;overflow=hidden;whiteSpace=wrap;html=1;" vertex="1" parent="OakHQ82f-dWZ7RWoMNHG-7">
          <mxGeometry x="30" width="150" height="30" as="geometry">
            <mxRectangle width="150" height="30" as="alternateBounds" />
          </mxGeometry>
        </mxCell>
        <mxCell id="OakHQ82f-dWZ7RWoMNHG-10" value="" style="shape=tableRow;horizontal=0;startSize=0;swimlaneHead=0;swimlaneBody=0;fillColor=none;collapsible=0;dropTarget=0;points=[[0,0.5],[1,0.5]];portConstraint=eastwest;top=0;left=0;right=0;bottom=0;" vertex="1" parent="OakHQ82f-dWZ7RWoMNHG-6">
          <mxGeometry y="60" width="180" height="30" as="geometry" />
        </mxCell>
        <mxCell id="OakHQ82f-dWZ7RWoMNHG-11" value="" style="shape=partialRectangle;connectable=0;fillColor=none;top=0;left=0;bottom=0;right=0;editable=1;overflow=hidden;whiteSpace=wrap;html=1;" vertex="1" parent="OakHQ82f-dWZ7RWoMNHG-10">
          <mxGeometry width="30" height="30" as="geometry">
            <mxRectangle width="30" height="30" as="alternateBounds" />
          </mxGeometry>
        </mxCell>
        <mxCell id="OakHQ82f-dWZ7RWoMNHG-12" value="Nome" style="shape=partialRectangle;connectable=0;fillColor=none;top=0;left=0;bottom=0;right=0;align=left;spacingLeft=6;overflow=hidden;whiteSpace=wrap;html=1;" vertex="1" parent="OakHQ82f-dWZ7RWoMNHG-10">
          <mxGeometry x="30" width="150" height="30" as="geometry">
            <mxRectangle width="150" height="30" as="alternateBounds" />
          </mxGeometry>
        </mxCell>
        <mxCell id="OakHQ82f-dWZ7RWoMNHG-13" value="" style="shape=tableRow;horizontal=0;startSize=0;swimlaneHead=0;swimlaneBody=0;fillColor=none;collapsible=0;dropTarget=0;points=[[0,0.5],[1,0.5]];portConstraint=eastwest;top=0;left=0;right=0;bottom=0;" vertex="1" parent="OakHQ82f-dWZ7RWoMNHG-6">
          <mxGeometry y="90" width="180" height="30" as="geometry" />
        </mxCell>
        <mxCell id="OakHQ82f-dWZ7RWoMNHG-14" value="" style="shape=partialRectangle;connectable=0;fillColor=none;top=0;left=0;bottom=0;right=0;editable=1;overflow=hidden;whiteSpace=wrap;html=1;" vertex="1" parent="OakHQ82f-dWZ7RWoMNHG-13">
          <mxGeometry width="30" height="30" as="geometry">
            <mxRectangle width="30" height="30" as="alternateBounds" />
          </mxGeometry>
        </mxCell>
        <mxCell id="OakHQ82f-dWZ7RWoMNHG-15" value="" style="shape=partialRectangle;connectable=0;fillColor=none;top=0;left=0;bottom=0;right=0;align=left;spacingLeft=6;overflow=hidden;whiteSpace=wrap;html=1;" vertex="1" parent="OakHQ82f-dWZ7RWoMNHG-13">
          <mxGeometry x="30" width="150" height="30" as="geometry">
            <mxRectangle width="150" height="30" as="alternateBounds" />
          </mxGeometry>
        </mxCell>
        <mxCell id="OakHQ82f-dWZ7RWoMNHG-16" value="" style="shape=tableRow;horizontal=0;startSize=0;swimlaneHead=0;swimlaneBody=0;fillColor=none;collapsible=0;dropTarget=0;points=[[0,0.5],[1,0.5]];portConstraint=eastwest;top=0;left=0;right=0;bottom=0;" vertex="1" parent="OakHQ82f-dWZ7RWoMNHG-6">
          <mxGeometry y="120" width="180" height="20" as="geometry" />
        </mxCell>
        <mxCell id="OakHQ82f-dWZ7RWoMNHG-17" value="" style="shape=partialRectangle;connectable=0;fillColor=none;top=0;left=0;bottom=0;right=0;editable=1;overflow=hidden;whiteSpace=wrap;html=1;" vertex="1" parent="OakHQ82f-dWZ7RWoMNHG-16">
          <mxGeometry width="30" height="20" as="geometry">
            <mxRectangle width="30" height="20" as="alternateBounds" />
          </mxGeometry>
        </mxCell>
        <mxCell id="OakHQ82f-dWZ7RWoMNHG-18" value="" style="shape=partialRectangle;connectable=0;fillColor=none;top=0;left=0;bottom=0;right=0;align=left;spacingLeft=6;overflow=hidden;whiteSpace=wrap;html=1;" vertex="1" parent="OakHQ82f-dWZ7RWoMNHG-16">
          <mxGeometry x="30" width="150" height="20" as="geometry">
            <mxRectangle width="150" height="20" as="alternateBounds" />
          </mxGeometry>
        </mxCell>
        <mxCell id="OakHQ82f-dWZ7RWoMNHG-19" value="Table" style="shape=table;startSize=30;container=1;collapsible=1;childLayout=tableLayout;fixedRows=1;rowLines=0;fontStyle=1;align=center;resizeLast=1;html=1;" vertex="1" parent="1">
          <mxGeometry x="487" y="1210" width="236" height="560" as="geometry" />
        </mxCell>
        <mxCell id="OakHQ82f-dWZ7RWoMNHG-20" value="" style="shape=tableRow;horizontal=0;startSize=0;swimlaneHead=0;swimlaneBody=0;fillColor=none;collapsible=0;dropTarget=0;points=[[0,0.5],[1,0.5]];portConstraint=eastwest;top=0;left=0;right=0;bottom=1;" vertex="1" parent="OakHQ82f-dWZ7RWoMNHG-19">
          <mxGeometry y="30" width="236" height="41" as="geometry" />
        </mxCell>
        <mxCell id="OakHQ82f-dWZ7RWoMNHG-21" value="PK FK1" style="shape=partialRectangle;connectable=0;fillColor=none;top=0;left=0;bottom=0;right=0;fontStyle=1;overflow=hidden;whiteSpace=wrap;html=1;" vertex="1" parent="OakHQ82f-dWZ7RWoMNHG-20">
          <mxGeometry width="56" height="41" as="geometry">
            <mxRectangle width="56" height="41" as="alternateBounds" />
          </mxGeometry>
        </mxCell>
        <mxCell id="OakHQ82f-dWZ7RWoMNHG-22" value="Ra" style="shape=partialRectangle;connectable=0;fillColor=none;top=0;left=0;bottom=0;right=0;align=left;spacingLeft=6;fontStyle=5;overflow=hidden;whiteSpace=wrap;html=1;" vertex="1" parent="OakHQ82f-dWZ7RWoMNHG-20">
          <mxGeometry x="56" width="180" height="41" as="geometry">
            <mxRectangle width="180" height="41" as="alternateBounds" />
          </mxGeometry>
        </mxCell>
        <mxCell id="OakHQ82f-dWZ7RWoMNHG-23" value="" style="shape=tableRow;horizontal=0;startSize=0;swimlaneHead=0;swimlaneBody=0;fillColor=none;collapsible=0;dropTarget=0;points=[[0,0.5],[1,0.5]];portConstraint=eastwest;top=0;left=0;right=0;bottom=0;" vertex="1" parent="OakHQ82f-dWZ7RWoMNHG-19">
          <mxGeometry y="71" width="236" height="30" as="geometry" />
        </mxCell>
        <mxCell id="OakHQ82f-dWZ7RWoMNHG-24" value="PK FK2" style="shape=partialRectangle;connectable=0;fillColor=none;top=0;left=0;bottom=0;right=0;editable=1;overflow=hidden;whiteSpace=wrap;html=1;" vertex="1" parent="OakHQ82f-dWZ7RWoMNHG-23">
          <mxGeometry width="56" height="30" as="geometry">
            <mxRectangle width="56" height="30" as="alternateBounds" />
          </mxGeometry>
        </mxCell>
        <mxCell id="OakHQ82f-dWZ7RWoMNHG-25" value="&lt;b&gt;&lt;u&gt;CodigoDisciplina&lt;/u&gt;&lt;/b&gt;" style="shape=partialRectangle;connectable=0;fillColor=none;top=0;left=0;bottom=0;right=0;align=left;spacingLeft=6;overflow=hidden;whiteSpace=wrap;html=1;" vertex="1" parent="OakHQ82f-dWZ7RWoMNHG-23">
          <mxGeometry x="56" width="180" height="30" as="geometry">
            <mxRectangle width="180" height="30" as="alternateBounds" />
          </mxGeometry>
        </mxCell>
        <mxCell id="OakHQ82f-dWZ7RWoMNHG-26" value="" style="shape=tableRow;horizontal=0;startSize=0;swimlaneHead=0;swimlaneBody=0;fillColor=none;collapsible=0;dropTarget=0;points=[[0,0.5],[1,0.5]];portConstraint=eastwest;top=0;left=0;right=0;bottom=0;" vertex="1" parent="OakHQ82f-dWZ7RWoMNHG-19">
          <mxGeometry y="101" width="236" height="59" as="geometry" />
        </mxCell>
        <mxCell id="OakHQ82f-dWZ7RWoMNHG-27" value="" style="shape=partialRectangle;connectable=0;fillColor=none;top=0;left=0;bottom=0;right=0;editable=1;overflow=hidden;whiteSpace=wrap;html=1;" vertex="1" parent="OakHQ82f-dWZ7RWoMNHG-26">
          <mxGeometry width="56" height="59" as="geometry">
            <mxRectangle width="56" height="59" as="alternateBounds" />
          </mxGeometry>
        </mxCell>
        <mxCell id="OakHQ82f-dWZ7RWoMNHG-28" value="Nota1" style="shape=partialRectangle;connectable=0;fillColor=none;top=0;left=0;bottom=0;right=0;align=left;spacingLeft=6;overflow=hidden;whiteSpace=wrap;html=1;" vertex="1" parent="OakHQ82f-dWZ7RWoMNHG-26">
          <mxGeometry x="56" width="180" height="59" as="geometry">
            <mxRectangle width="180" height="59" as="alternateBounds" />
          </mxGeometry>
        </mxCell>
        <mxCell id="OakHQ82f-dWZ7RWoMNHG-29" value="" style="shape=tableRow;horizontal=0;startSize=0;swimlaneHead=0;swimlaneBody=0;fillColor=none;collapsible=0;dropTarget=0;points=[[0,0.5],[1,0.5]];portConstraint=eastwest;top=0;left=0;right=0;bottom=0;" vertex="1" parent="OakHQ82f-dWZ7RWoMNHG-19">
          <mxGeometry y="160" width="236" height="80" as="geometry" />
        </mxCell>
        <mxCell id="OakHQ82f-dWZ7RWoMNHG-30" value="" style="shape=partialRectangle;connectable=0;fillColor=none;top=0;left=0;bottom=0;right=0;editable=1;overflow=hidden;whiteSpace=wrap;html=1;" vertex="1" parent="OakHQ82f-dWZ7RWoMNHG-29">
          <mxGeometry width="56" height="80" as="geometry">
            <mxRectangle width="56" height="80" as="alternateBounds" />
          </mxGeometry>
        </mxCell>
        <mxCell id="OakHQ82f-dWZ7RWoMNHG-31" value="Nota2" style="shape=partialRectangle;connectable=0;fillColor=none;top=0;left=0;bottom=0;right=0;align=left;spacingLeft=6;overflow=hidden;whiteSpace=wrap;html=1;" vertex="1" parent="OakHQ82f-dWZ7RWoMNHG-29">
          <mxGeometry x="56" width="180" height="80" as="geometry">
            <mxRectangle width="180" height="80" as="alternateBounds" />
          </mxGeometry>
        </mxCell>
        <mxCell id="OakHQ82f-dWZ7RWoMNHG-45" value="" style="shape=tableRow;horizontal=0;startSize=0;swimlaneHead=0;swimlaneBody=0;fillColor=none;collapsible=0;dropTarget=0;points=[[0,0.5],[1,0.5]];portConstraint=eastwest;top=0;left=0;right=0;bottom=0;" vertex="1" parent="OakHQ82f-dWZ7RWoMNHG-19">
          <mxGeometry y="240" width="236" height="80" as="geometry" />
        </mxCell>
        <mxCell id="OakHQ82f-dWZ7RWoMNHG-46" value="" style="shape=partialRectangle;connectable=0;fillColor=none;top=0;left=0;bottom=0;right=0;editable=1;overflow=hidden;whiteSpace=wrap;html=1;" vertex="1" parent="OakHQ82f-dWZ7RWoMNHG-45">
          <mxGeometry width="56" height="80" as="geometry">
            <mxRectangle width="56" height="80" as="alternateBounds" />
          </mxGeometry>
        </mxCell>
        <mxCell id="OakHQ82f-dWZ7RWoMNHG-47" value="Substitutiva" style="shape=partialRectangle;connectable=0;fillColor=none;top=0;left=0;bottom=0;right=0;align=left;spacingLeft=6;overflow=hidden;whiteSpace=wrap;html=1;" vertex="1" parent="OakHQ82f-dWZ7RWoMNHG-45">
          <mxGeometry x="56" width="180" height="80" as="geometry">
            <mxRectangle width="180" height="80" as="alternateBounds" />
          </mxGeometry>
        </mxCell>
        <mxCell id="OakHQ82f-dWZ7RWoMNHG-48" value="" style="shape=tableRow;horizontal=0;startSize=0;swimlaneHead=0;swimlaneBody=0;fillColor=none;collapsible=0;dropTarget=0;points=[[0,0.5],[1,0.5]];portConstraint=eastwest;top=0;left=0;right=0;bottom=0;" vertex="1" parent="OakHQ82f-dWZ7RWoMNHG-19">
          <mxGeometry y="320" width="236" height="80" as="geometry" />
        </mxCell>
        <mxCell id="OakHQ82f-dWZ7RWoMNHG-49" value="" style="shape=partialRectangle;connectable=0;fillColor=none;top=0;left=0;bottom=0;right=0;editable=1;overflow=hidden;whiteSpace=wrap;html=1;" vertex="1" parent="OakHQ82f-dWZ7RWoMNHG-48">
          <mxGeometry width="56" height="80" as="geometry">
            <mxRectangle width="56" height="80" as="alternateBounds" />
          </mxGeometry>
        </mxCell>
        <mxCell id="OakHQ82f-dWZ7RWoMNHG-50" value="Frequencia" style="shape=partialRectangle;connectable=0;fillColor=none;top=0;left=0;bottom=0;right=0;align=left;spacingLeft=6;overflow=hidden;whiteSpace=wrap;html=1;" vertex="1" parent="OakHQ82f-dWZ7RWoMNHG-48">
          <mxGeometry x="56" width="180" height="80" as="geometry">
            <mxRectangle width="180" height="80" as="alternateBounds" />
          </mxGeometry>
        </mxCell>
        <mxCell id="OakHQ82f-dWZ7RWoMNHG-51" value="" style="shape=tableRow;horizontal=0;startSize=0;swimlaneHead=0;swimlaneBody=0;fillColor=none;collapsible=0;dropTarget=0;points=[[0,0.5],[1,0.5]];portConstraint=eastwest;top=0;left=0;right=0;bottom=0;" vertex="1" parent="OakHQ82f-dWZ7RWoMNHG-19">
          <mxGeometry y="400" width="236" height="80" as="geometry" />
        </mxCell>
        <mxCell id="OakHQ82f-dWZ7RWoMNHG-52" value="" style="shape=partialRectangle;connectable=0;fillColor=none;top=0;left=0;bottom=0;right=0;editable=1;overflow=hidden;whiteSpace=wrap;html=1;" vertex="1" parent="OakHQ82f-dWZ7RWoMNHG-51">
          <mxGeometry width="56" height="80" as="geometry">
            <mxRectangle width="56" height="80" as="alternateBounds" />
          </mxGeometry>
        </mxCell>
        <mxCell id="OakHQ82f-dWZ7RWoMNHG-53" value="Media" style="shape=partialRectangle;connectable=0;fillColor=none;top=0;left=0;bottom=0;right=0;align=left;spacingLeft=6;overflow=hidden;whiteSpace=wrap;html=1;" vertex="1" parent="OakHQ82f-dWZ7RWoMNHG-51">
          <mxGeometry x="56" width="180" height="80" as="geometry">
            <mxRectangle width="180" height="80" as="alternateBounds" />
          </mxGeometry>
        </mxCell>
        <mxCell id="OakHQ82f-dWZ7RWoMNHG-54" value="" style="shape=tableRow;horizontal=0;startSize=0;swimlaneHead=0;swimlaneBody=0;fillColor=none;collapsible=0;dropTarget=0;points=[[0,0.5],[1,0.5]];portConstraint=eastwest;top=0;left=0;right=0;bottom=0;" vertex="1" parent="OakHQ82f-dWZ7RWoMNHG-19">
          <mxGeometry y="480" width="236" height="80" as="geometry" />
        </mxCell>
        <mxCell id="OakHQ82f-dWZ7RWoMNHG-55" value="" style="shape=partialRectangle;connectable=0;fillColor=none;top=0;left=0;bottom=0;right=0;editable=1;overflow=hidden;whiteSpace=wrap;html=1;" vertex="1" parent="OakHQ82f-dWZ7RWoMNHG-54">
          <mxGeometry width="56" height="80" as="geometry">
            <mxRectangle width="56" height="80" as="alternateBounds" />
          </mxGeometry>
        </mxCell>
        <mxCell id="OakHQ82f-dWZ7RWoMNHG-56" value="Situacao" style="shape=partialRectangle;connectable=0;fillColor=none;top=0;left=0;bottom=0;right=0;align=left;spacingLeft=6;overflow=hidden;whiteSpace=wrap;html=1;" vertex="1" parent="OakHQ82f-dWZ7RWoMNHG-54">
          <mxGeometry x="56" width="180" height="80" as="geometry">
            <mxRectangle width="180" height="80" as="alternateBounds" />
          </mxGeometry>
        </mxCell>
        <mxCell id="OakHQ82f-dWZ7RWoMNHG-32" value="Table" style="shape=table;startSize=30;container=1;collapsible=1;childLayout=tableLayout;fixedRows=1;rowLines=0;fontStyle=1;align=center;resizeLast=1;html=1;" vertex="1" parent="1">
          <mxGeometry x="47" y="1380" width="180" height="160" as="geometry" />
        </mxCell>
        <mxCell id="OakHQ82f-dWZ7RWoMNHG-33" value="" style="shape=tableRow;horizontal=0;startSize=0;swimlaneHead=0;swimlaneBody=0;fillColor=none;collapsible=0;dropTarget=0;points=[[0,0.5],[1,0.5]];portConstraint=eastwest;top=0;left=0;right=0;bottom=1;" vertex="1" parent="OakHQ82f-dWZ7RWoMNHG-32">
          <mxGeometry y="30" width="180" height="30" as="geometry" />
        </mxCell>
        <mxCell id="OakHQ82f-dWZ7RWoMNHG-34" value="PK" style="shape=partialRectangle;connectable=0;fillColor=none;top=0;left=0;bottom=0;right=0;fontStyle=1;overflow=hidden;whiteSpace=wrap;html=1;" vertex="1" parent="OakHQ82f-dWZ7RWoMNHG-33">
          <mxGeometry width="30" height="30" as="geometry">
            <mxRectangle width="30" height="30" as="alternateBounds" />
          </mxGeometry>
        </mxCell>
        <mxCell id="OakHQ82f-dWZ7RWoMNHG-35" value="Codigo" style="shape=partialRectangle;connectable=0;fillColor=none;top=0;left=0;bottom=0;right=0;align=left;spacingLeft=6;fontStyle=5;overflow=hidden;whiteSpace=wrap;html=1;" vertex="1" parent="OakHQ82f-dWZ7RWoMNHG-33">
          <mxGeometry x="30" width="150" height="30" as="geometry">
            <mxRectangle width="150" height="30" as="alternateBounds" />
          </mxGeometry>
        </mxCell>
        <mxCell id="OakHQ82f-dWZ7RWoMNHG-36" value="" style="shape=tableRow;horizontal=0;startSize=0;swimlaneHead=0;swimlaneBody=0;fillColor=none;collapsible=0;dropTarget=0;points=[[0,0.5],[1,0.5]];portConstraint=eastwest;top=0;left=0;right=0;bottom=0;" vertex="1" parent="OakHQ82f-dWZ7RWoMNHG-32">
          <mxGeometry y="60" width="180" height="30" as="geometry" />
        </mxCell>
        <mxCell id="OakHQ82f-dWZ7RWoMNHG-37" value="" style="shape=partialRectangle;connectable=0;fillColor=none;top=0;left=0;bottom=0;right=0;editable=1;overflow=hidden;whiteSpace=wrap;html=1;" vertex="1" parent="OakHQ82f-dWZ7RWoMNHG-36">
          <mxGeometry width="30" height="30" as="geometry">
            <mxRectangle width="30" height="30" as="alternateBounds" />
          </mxGeometry>
        </mxCell>
        <mxCell id="OakHQ82f-dWZ7RWoMNHG-38" value="Nome" style="shape=partialRectangle;connectable=0;fillColor=none;top=0;left=0;bottom=0;right=0;align=left;spacingLeft=6;overflow=hidden;whiteSpace=wrap;html=1;" vertex="1" parent="OakHQ82f-dWZ7RWoMNHG-36">
          <mxGeometry x="30" width="150" height="30" as="geometry">
            <mxRectangle width="150" height="30" as="alternateBounds" />
          </mxGeometry>
        </mxCell>
        <mxCell id="OakHQ82f-dWZ7RWoMNHG-39" value="" style="shape=tableRow;horizontal=0;startSize=0;swimlaneHead=0;swimlaneBody=0;fillColor=none;collapsible=0;dropTarget=0;points=[[0,0.5],[1,0.5]];portConstraint=eastwest;top=0;left=0;right=0;bottom=0;" vertex="1" parent="OakHQ82f-dWZ7RWoMNHG-32">
          <mxGeometry y="90" width="180" height="40" as="geometry" />
        </mxCell>
        <mxCell id="OakHQ82f-dWZ7RWoMNHG-40" value="" style="shape=partialRectangle;connectable=0;fillColor=none;top=0;left=0;bottom=0;right=0;editable=1;overflow=hidden;whiteSpace=wrap;html=1;" vertex="1" parent="OakHQ82f-dWZ7RWoMNHG-39">
          <mxGeometry width="30" height="40" as="geometry">
            <mxRectangle width="30" height="40" as="alternateBounds" />
          </mxGeometry>
        </mxCell>
        <mxCell id="OakHQ82f-dWZ7RWoMNHG-41" value="CargaHoraria" style="shape=partialRectangle;connectable=0;fillColor=none;top=0;left=0;bottom=0;right=0;align=left;spacingLeft=6;overflow=hidden;whiteSpace=wrap;html=1;" vertex="1" parent="OakHQ82f-dWZ7RWoMNHG-39">
          <mxGeometry x="30" width="150" height="40" as="geometry">
            <mxRectangle width="150" height="40" as="alternateBounds" />
          </mxGeometry>
        </mxCell>
        <mxCell id="OakHQ82f-dWZ7RWoMNHG-42" value="" style="shape=tableRow;horizontal=0;startSize=0;swimlaneHead=0;swimlaneBody=0;fillColor=none;collapsible=0;dropTarget=0;points=[[0,0.5],[1,0.5]];portConstraint=eastwest;top=0;left=0;right=0;bottom=0;" vertex="1" parent="OakHQ82f-dWZ7RWoMNHG-32">
          <mxGeometry y="130" width="180" height="30" as="geometry" />
        </mxCell>
        <mxCell id="OakHQ82f-dWZ7RWoMNHG-43" value="" style="shape=partialRectangle;connectable=0;fillColor=none;top=0;left=0;bottom=0;right=0;editable=1;overflow=hidden;whiteSpace=wrap;html=1;" vertex="1" parent="OakHQ82f-dWZ7RWoMNHG-42">
          <mxGeometry width="30" height="30" as="geometry">
            <mxRectangle width="30" height="30" as="alternateBounds" />
          </mxGeometry>
        </mxCell>
        <mxCell id="OakHQ82f-dWZ7RWoMNHG-44" value="" style="shape=partialRectangle;connectable=0;fillColor=none;top=0;left=0;bottom=0;right=0;align=left;spacingLeft=6;overflow=hidden;whiteSpace=wrap;html=1;" vertex="1" parent="OakHQ82f-dWZ7RWoMNHG-42">
          <mxGeometry x="30" width="150" height="30" as="geometry">
            <mxRectangle width="150" height="30" as="alternateBounds" />
          </mxGeometry>
        </mxCell>
        <mxCell id="OakHQ82f-dWZ7RWoMNHG-57" style="edgeStyle=orthogonalEdgeStyle;rounded=0;orthogonalLoop=1;jettySize=auto;html=1;entryX=0;entryY=0.267;entryDx=0;entryDy=0;entryPerimeter=0;" edge="1" parent="1" source="OakHQ82f-dWZ7RWoMNHG-33" target="OakHQ82f-dWZ7RWoMNHG-23">
          <mxGeometry relative="1" as="geometry" />
        </mxCell>
        <mxCell id="OakHQ82f-dWZ7RWoMNHG-58" style="edgeStyle=orthogonalEdgeStyle;rounded=0;orthogonalLoop=1;jettySize=auto;html=1;entryX=0;entryY=0.5;entryDx=0;entryDy=0;" edge="1" parent="1" source="OakHQ82f-dWZ7RWoMNHG-7" target="OakHQ82f-dWZ7RWoMNHG-20">
          <mxGeometry relative="1" as="geometry" />
        </mxCell>
        <mxCell id="OakHQ82f-dWZ7RWoMNHG-59" value="" style="swimlane;startSize=0;" vertex="1" parent="1">
          <mxGeometry x="30" y="1120" width="780" height="670" as="geometry" />
        </mxCell>
        <mxCell id="OakHQ82f-dWZ7RWoMNHG-60" value="Modelo Relacional" style="text;html=1;align=center;verticalAlign=middle;resizable=0;points=[];autosize=1;strokeColor=none;fillColor=none;" vertex="1" parent="1">
          <mxGeometry x="330" y="1078" width="120" height="30" as="geometry" />
        </mxCell>
      </root>
    </mxGraphModel>
  </diagram>
</mxfile>
